<mxfile host="Electron" agent="Mozilla/5.0 (Macintosh; Intel Mac OS X 10_15_7) AppleWebKit/537.36 (KHTML, like Gecko) draw.io/27.0.2 Chrome/134.0.6998.205 Electron/35.3.0 Safari/537.36" version="27.0.2">
  <diagram id="Ht1M8jgEwFfnCIfOTk4-" name="Page-1">
    <mxGraphModel dx="1118" dy="859" grid="1" gridSize="10" guides="1" tooltips="1" connect="1" arrows="1" fold="1" page="1" pageScale="1" pageWidth="1100" pageHeight="850" math="0" shadow="0">
      <root>
        <mxCell id="0" />
        <mxCell id="1" parent="0" />
        <mxCell id="UEzPUAAOIrF-is8g5C7q-2" value="AWS Cloud" style="points=[[0,0],[0.25,0],[0.5,0],[0.75,0],[1,0],[1,0.25],[1,0.5],[1,0.75],[1,1],[0.75,1],[0.5,1],[0.25,1],[0,1],[0,0.75],[0,0.5],[0,0.25]];outlineConnect=0;gradientColor=none;html=1;whiteSpace=wrap;fontSize=12;fontStyle=0;shape=mxgraph.aws4.group;grIcon=mxgraph.aws4.group_aws_cloud_alt;strokeColor=#232F3E;fillColor=none;verticalAlign=top;align=left;spacingLeft=30;fontColor=#232F3E;dashed=0;container=1;pointerEvents=0;collapsible=0;recursiveResize=0;" parent="1" vertex="1">
          <mxGeometry x="470" y="175" width="596" height="625" as="geometry" />
        </mxCell>
        <mxCell id="L3uOfCzPtdk7CH7yRiEO-7" value="Cloud Database VPC" style="sketch=0;points=[[0,0,0],[0.25,0,0],[0.5,0,0],[0.75,0,0],[1,0,0],[0,1,0],[0.25,1,0],[0.5,1,0],[0.75,1,0],[1,1,0],[0,0.25,0],[0,0.5,0],[0,0.75,0],[1,0.25,0],[1,0.5,0],[1,0.75,0]];outlineConnect=0;fontColor=#232F3E;fillColor=#8C4FFF;strokeColor=#ffffff;dashed=0;verticalLabelPosition=bottom;verticalAlign=top;align=center;html=1;fontSize=12;fontStyle=0;aspect=fixed;shape=mxgraph.aws4.resourceIcon;resIcon=mxgraph.aws4.vpc;" parent="UEzPUAAOIrF-is8g5C7q-2" vertex="1">
          <mxGeometry x="184" y="85" width="60" height="60" as="geometry" />
        </mxCell>
        <mxCell id="L3uOfCzPtdk7CH7yRiEO-11" style="edgeStyle=orthogonalEdgeStyle;rounded=0;orthogonalLoop=1;jettySize=auto;html=1;entryX=0;entryY=0.5;entryDx=0;entryDy=0;startArrow=classic;startFill=1;" parent="UEzPUAAOIrF-is8g5C7q-2" source="L3uOfCzPtdk7CH7yRiEO-6" target="L3uOfCzPtdk7CH7yRiEO-10" edge="1">
          <mxGeometry relative="1" as="geometry" />
        </mxCell>
        <mxCell id="L3uOfCzPtdk7CH7yRiEO-6" value="Transit Gateway" style="sketch=0;points=[[0,0,0],[0.25,0,0],[0.5,0,0],[0.75,0,0],[1,0,0],[0,1,0],[0.25,1,0],[0.5,1,0],[0.75,1,0],[1,1,0],[0,0.25,0],[0,0.5,0],[0,0.75,0],[1,0.25,0],[1,0.5,0],[1,0.75,0]];outlineConnect=0;fontColor=#232F3E;fillColor=#8C4FFF;strokeColor=#ffffff;dashed=0;verticalLabelPosition=bottom;verticalAlign=top;align=center;html=1;fontSize=12;fontStyle=0;aspect=fixed;shape=mxgraph.aws4.resourceIcon;resIcon=mxgraph.aws4.transit_gateway;" parent="UEzPUAAOIrF-is8g5C7q-2" vertex="1">
          <mxGeometry x="24" y="381" width="60" height="60" as="geometry" />
        </mxCell>
        <mxCell id="L3uOfCzPtdk7CH7yRiEO-8" style="edgeStyle=orthogonalEdgeStyle;rounded=0;orthogonalLoop=1;jettySize=auto;html=1;entryX=0;entryY=0.5;entryDx=0;entryDy=0;entryPerimeter=0;" parent="UEzPUAAOIrF-is8g5C7q-2" source="L3uOfCzPtdk7CH7yRiEO-6" target="L3uOfCzPtdk7CH7yRiEO-7" edge="1">
          <mxGeometry relative="1" as="geometry">
            <Array as="points">
              <mxPoint x="73" y="115" />
              <mxPoint x="148" y="115" />
            </Array>
          </mxGeometry>
        </mxCell>
        <mxCell id="L3uOfCzPtdk7CH7yRiEO-10" value="VPC" style="points=[[0,0],[0.25,0],[0.5,0],[0.75,0],[1,0],[1,0.25],[1,0.5],[1,0.75],[1,1],[0.75,1],[0.5,1],[0.25,1],[0,1],[0,0.75],[0,0.5],[0,0.25]];outlineConnect=0;gradientColor=none;html=1;whiteSpace=wrap;fontSize=12;fontStyle=0;container=1;pointerEvents=0;collapsible=0;recursiveResize=0;shape=mxgraph.aws4.group;grIcon=mxgraph.aws4.group_vpc2;strokeColor=#8C4FFF;fillColor=none;verticalAlign=top;align=left;spacingLeft=30;fontColor=#AAB7B8;dashed=0;" parent="UEzPUAAOIrF-is8g5C7q-2" vertex="1">
          <mxGeometry x="174" y="229.25" width="436" height="363.5" as="geometry" />
        </mxCell>
        <mxCell id="L3uOfCzPtdk7CH7yRiEO-42" style="edgeStyle=orthogonalEdgeStyle;rounded=0;orthogonalLoop=1;jettySize=auto;html=1;startArrow=classic;startFill=1;" parent="L3uOfCzPtdk7CH7yRiEO-10" source="L3uOfCzPtdk7CH7yRiEO-13" target="L3uOfCzPtdk7CH7yRiEO-41" edge="1">
          <mxGeometry relative="1" as="geometry">
            <Array as="points">
              <mxPoint x="170" y="182" />
              <mxPoint x="170" y="66" />
            </Array>
          </mxGeometry>
        </mxCell>
        <mxCell id="L3uOfCzPtdk7CH7yRiEO-13" value="UI Subnet" style="points=[[0,0],[0.25,0],[0.5,0],[0.75,0],[1,0],[1,0.25],[1,0.5],[1,0.75],[1,1],[0.75,1],[0.5,1],[0.25,1],[0,1],[0,0.75],[0,0.5],[0,0.25]];outlineConnect=0;gradientColor=none;html=1;whiteSpace=wrap;fontSize=12;fontStyle=0;container=1;pointerEvents=0;collapsible=0;recursiveResize=0;shape=mxgraph.aws4.group;grIcon=mxgraph.aws4.group_security_group;grStroke=0;strokeColor=#7AA116;fillColor=#F2F6E8;verticalAlign=top;align=left;spacingLeft=30;fontColor=#248814;dashed=0;" parent="L3uOfCzPtdk7CH7yRiEO-10" vertex="1">
          <mxGeometry x="40" y="121.5" width="110" height="120.5" as="geometry" />
        </mxCell>
        <mxCell id="L3uOfCzPtdk7CH7yRiEO-15" value="Tool UI" style="sketch=0;points=[[0,0,0],[0.25,0,0],[0.5,0,0],[0.75,0,0],[1,0,0],[0,1,0],[0.25,1,0],[0.5,1,0],[0.75,1,0],[1,1,0],[0,0.25,0],[0,0.5,0],[0,0.75,0],[1,0.25,0],[1,0.5,0],[1,0.75,0]];outlineConnect=0;fontColor=#232F3E;fillColor=#ED7100;strokeColor=#ffffff;dashed=0;verticalLabelPosition=bottom;verticalAlign=top;align=center;html=1;fontSize=12;fontStyle=0;aspect=fixed;shape=mxgraph.aws4.resourceIcon;resIcon=mxgraph.aws4.lightsail;" parent="L3uOfCzPtdk7CH7yRiEO-13" vertex="1">
          <mxGeometry x="26" y="32" width="60" height="60" as="geometry" />
        </mxCell>
        <mxCell id="L3uOfCzPtdk7CH7yRiEO-14" value="Microservice Subnet" style="points=[[0,0],[0.25,0],[0.5,0],[0.75,0],[1,0],[1,0.25],[1,0.5],[1,0.75],[1,1],[0.75,1],[0.5,1],[0.25,1],[0,1],[0,0.75],[0,0.5],[0,0.25]];outlineConnect=0;gradientColor=none;html=1;whiteSpace=wrap;fontSize=12;fontStyle=0;container=1;pointerEvents=0;collapsible=0;recursiveResize=0;shape=mxgraph.aws4.group;grIcon=mxgraph.aws4.group_security_group;grStroke=0;strokeColor=#00A4A6;fillColor=#E6F6F7;verticalAlign=top;align=left;spacingLeft=30;fontColor=#147EBA;dashed=0;" parent="L3uOfCzPtdk7CH7yRiEO-10" vertex="1">
          <mxGeometry x="200" y="19.25" width="220" height="340.75" as="geometry" />
        </mxCell>
        <mxCell id="L3uOfCzPtdk7CH7yRiEO-36" style="edgeStyle=orthogonalEdgeStyle;rounded=0;orthogonalLoop=1;jettySize=auto;html=1;" parent="L3uOfCzPtdk7CH7yRiEO-14" source="L3uOfCzPtdk7CH7yRiEO-16" target="L3uOfCzPtdk7CH7yRiEO-35" edge="1">
          <mxGeometry relative="1" as="geometry" />
        </mxCell>
        <mxCell id="L3uOfCzPtdk7CH7yRiEO-16" value="DB Connector&amp;nbsp;&lt;div&gt;Service&lt;/div&gt;" style="sketch=0;points=[[0,0,0],[0.25,0,0],[0.5,0,0],[0.75,0,0],[1,0,0],[0,1,0],[0.25,1,0],[0.5,1,0],[0.75,1,0],[1,1,0],[0,0.25,0],[0,0.5,0],[0,0.75,0],[1,0.25,0],[1,0.5,0],[1,0.75,0]];outlineConnect=0;fontColor=#232F3E;fillColor=#ED7100;strokeColor=#ffffff;dashed=0;verticalLabelPosition=bottom;verticalAlign=top;align=center;html=1;fontSize=12;fontStyle=0;aspect=fixed;shape=mxgraph.aws4.resourceIcon;resIcon=mxgraph.aws4.lambda;" parent="L3uOfCzPtdk7CH7yRiEO-14" vertex="1">
          <mxGeometry x="33" y="34.25" width="60" height="60" as="geometry" />
        </mxCell>
        <mxCell id="L3uOfCzPtdk7CH7yRiEO-17" value="Config DB" style="sketch=0;points=[[0,0,0],[0.25,0,0],[0.5,0,0],[0.75,0,0],[1,0,0],[0,1,0],[0.25,1,0],[0.5,1,0],[0.75,1,0],[1,1,0],[0,0.25,0],[0,0.5,0],[0,0.75,0],[1,0.25,0],[1,0.5,0],[1,0.75,0]];outlineConnect=0;fontColor=#232F3E;fillColor=#C925D1;strokeColor=#ffffff;dashed=0;verticalLabelPosition=bottom;verticalAlign=top;align=center;html=1;fontSize=12;fontStyle=0;aspect=fixed;shape=mxgraph.aws4.resourceIcon;resIcon=mxgraph.aws4.documentdb_with_mongodb_compatibility;" parent="L3uOfCzPtdk7CH7yRiEO-14" vertex="1">
          <mxGeometry x="140" y="176.5" width="60" height="60" as="geometry" />
        </mxCell>
        <mxCell id="L3uOfCzPtdk7CH7yRiEO-22" value="Data Validator&amp;nbsp;&lt;div&gt;Service&lt;/div&gt;" style="sketch=0;points=[[0,0,0],[0.25,0,0],[0.5,0,0],[0.75,0,0],[1,0,0],[0,1,0],[0.25,1,0],[0.5,1,0],[0.75,1,0],[1,1,0],[0,0.25,0],[0,0.5,0],[0,0.75,0],[1,0.25,0],[1,0.5,0],[1,0.75,0]];outlineConnect=0;fontColor=#232F3E;fillColor=#ED7100;strokeColor=#ffffff;dashed=0;verticalLabelPosition=bottom;verticalAlign=top;align=center;html=1;fontSize=12;fontStyle=0;aspect=fixed;shape=mxgraph.aws4.resourceIcon;resIcon=mxgraph.aws4.lambda;" parent="L3uOfCzPtdk7CH7yRiEO-14" vertex="1">
          <mxGeometry x="33" y="135.37" width="60" height="60" as="geometry" />
        </mxCell>
        <mxCell id="L3uOfCzPtdk7CH7yRiEO-23" value="App Manager&amp;nbsp;&lt;div&gt;Service&lt;/div&gt;" style="sketch=0;points=[[0,0,0],[0.25,0,0],[0.5,0,0],[0.75,0,0],[1,0,0],[0,1,0],[0.25,1,0],[0.5,1,0],[0.75,1,0],[1,1,0],[0,0.25,0],[0,0.5,0],[0,0.75,0],[1,0.25,0],[1,0.5,0],[1,0.75,0]];outlineConnect=0;fontColor=#232F3E;fillColor=#ED7100;strokeColor=#ffffff;dashed=0;verticalLabelPosition=bottom;verticalAlign=top;align=center;html=1;fontSize=12;fontStyle=0;aspect=fixed;shape=mxgraph.aws4.resourceIcon;resIcon=mxgraph.aws4.lambda;" parent="L3uOfCzPtdk7CH7yRiEO-14" vertex="1">
          <mxGeometry x="33" y="239.25" width="60" height="60" as="geometry" />
        </mxCell>
        <mxCell id="L3uOfCzPtdk7CH7yRiEO-24" style="edgeStyle=orthogonalEdgeStyle;rounded=0;orthogonalLoop=1;jettySize=auto;html=1;entryX=0.5;entryY=0;entryDx=0;entryDy=0;entryPerimeter=0;endArrow=none;startFill=0;" parent="L3uOfCzPtdk7CH7yRiEO-14" source="L3uOfCzPtdk7CH7yRiEO-16" target="L3uOfCzPtdk7CH7yRiEO-17" edge="1">
          <mxGeometry relative="1" as="geometry">
            <Array as="points">
              <mxPoint x="120" y="77" />
              <mxPoint x="120" y="127" />
              <mxPoint x="170" y="127" />
            </Array>
          </mxGeometry>
        </mxCell>
        <mxCell id="L3uOfCzPtdk7CH7yRiEO-25" style="edgeStyle=orthogonalEdgeStyle;rounded=0;orthogonalLoop=1;jettySize=auto;html=1;entryX=0;entryY=0.5;entryDx=0;entryDy=0;entryPerimeter=0;endArrow=none;startFill=0;" parent="L3uOfCzPtdk7CH7yRiEO-14" source="L3uOfCzPtdk7CH7yRiEO-22" target="L3uOfCzPtdk7CH7yRiEO-17" edge="1">
          <mxGeometry relative="1" as="geometry" />
        </mxCell>
        <mxCell id="L3uOfCzPtdk7CH7yRiEO-26" style="edgeStyle=orthogonalEdgeStyle;rounded=0;orthogonalLoop=1;jettySize=auto;html=1;entryX=0;entryY=0.75;entryDx=0;entryDy=0;entryPerimeter=0;endArrow=none;startFill=0;" parent="L3uOfCzPtdk7CH7yRiEO-14" source="L3uOfCzPtdk7CH7yRiEO-23" target="L3uOfCzPtdk7CH7yRiEO-17" edge="1">
          <mxGeometry relative="1" as="geometry" />
        </mxCell>
        <mxCell id="L3uOfCzPtdk7CH7yRiEO-34" value="5" style="rounded=1;whiteSpace=wrap;html=1;fillColor=#007CBD;strokeColor=none;fontColor=#FFFFFF;fontStyle=1;fontSize=22;" parent="L3uOfCzPtdk7CH7yRiEO-14" vertex="1">
          <mxGeometry x="93" y="26.5" width="40" height="38" as="geometry" />
        </mxCell>
        <mxCell id="L3uOfCzPtdk7CH7yRiEO-35" value="Secrets Mgr" style="sketch=0;points=[[0,0,0],[0.25,0,0],[0.5,0,0],[0.75,0,0],[1,0,0],[0,1,0],[0.25,1,0],[0.5,1,0],[0.75,1,0],[1,1,0],[0,0.25,0],[0,0.5,0],[0,0.75,0],[1,0.25,0],[1,0.5,0],[1,0.75,0]];outlineConnect=0;fontColor=#232F3E;fillColor=#DD344C;strokeColor=#ffffff;dashed=0;verticalLabelPosition=bottom;verticalAlign=top;align=center;html=1;fontSize=12;fontStyle=0;aspect=fixed;shape=mxgraph.aws4.resourceIcon;resIcon=mxgraph.aws4.secrets_manager;" parent="L3uOfCzPtdk7CH7yRiEO-14" vertex="1">
          <mxGeometry x="150" y="34.25" width="60" height="60" as="geometry" />
        </mxCell>
        <mxCell id="L3uOfCzPtdk7CH7yRiEO-37" value="6" style="rounded=1;whiteSpace=wrap;html=1;fillColor=#007CBD;strokeColor=none;fontColor=#FFFFFF;fontStyle=1;fontSize=22;" parent="L3uOfCzPtdk7CH7yRiEO-14" vertex="1">
          <mxGeometry x="90" y="123.5" width="40" height="38" as="geometry" />
        </mxCell>
        <mxCell id="L3uOfCzPtdk7CH7yRiEO-38" value="7" style="rounded=1;whiteSpace=wrap;html=1;fillColor=#007CBD;strokeColor=none;fontColor=#FFFFFF;fontStyle=1;fontSize=22;" parent="L3uOfCzPtdk7CH7yRiEO-14" vertex="1">
          <mxGeometry x="100" y="296.5" width="40" height="38" as="geometry" />
        </mxCell>
        <mxCell id="L3uOfCzPtdk7CH7yRiEO-39" value="8" style="rounded=1;whiteSpace=wrap;html=1;fillColor=#007CBD;strokeColor=none;fontColor=#FFFFFF;fontStyle=1;fontSize=22;" parent="L3uOfCzPtdk7CH7yRiEO-14" vertex="1">
          <mxGeometry x="190" y="-3.75" width="40" height="38" as="geometry" />
        </mxCell>
        <mxCell id="L3uOfCzPtdk7CH7yRiEO-40" value="9" style="rounded=1;whiteSpace=wrap;html=1;fillColor=#007CBD;strokeColor=none;fontColor=#FFFFFF;fontStyle=1;fontSize=22;" parent="L3uOfCzPtdk7CH7yRiEO-14" vertex="1">
          <mxGeometry x="170" y="258.5" width="40" height="38" as="geometry" />
        </mxCell>
        <mxCell id="L3uOfCzPtdk7CH7yRiEO-27" style="edgeStyle=orthogonalEdgeStyle;rounded=0;orthogonalLoop=1;jettySize=auto;html=1;entryX=0;entryY=0.5;entryDx=0;entryDy=0;entryPerimeter=0;startArrow=none;startFill=0;exitX=0.876;exitY=0.254;exitDx=0;exitDy=0;exitPerimeter=0;" parent="L3uOfCzPtdk7CH7yRiEO-10" source="L3uOfCzPtdk7CH7yRiEO-41" target="L3uOfCzPtdk7CH7yRiEO-16" edge="1">
          <mxGeometry relative="1" as="geometry">
            <Array as="points">
              <mxPoint x="123" y="46" />
              <mxPoint x="182" y="46" />
              <mxPoint x="182" y="84" />
            </Array>
          </mxGeometry>
        </mxCell>
        <mxCell id="L3uOfCzPtdk7CH7yRiEO-28" style="edgeStyle=orthogonalEdgeStyle;rounded=0;orthogonalLoop=1;jettySize=auto;html=1;entryX=0;entryY=0.5;entryDx=0;entryDy=0;entryPerimeter=0;startArrow=none;startFill=0;" parent="L3uOfCzPtdk7CH7yRiEO-10" source="L3uOfCzPtdk7CH7yRiEO-41" target="L3uOfCzPtdk7CH7yRiEO-22" edge="1">
          <mxGeometry relative="1" as="geometry" />
        </mxCell>
        <mxCell id="L3uOfCzPtdk7CH7yRiEO-29" style="edgeStyle=orthogonalEdgeStyle;rounded=0;orthogonalLoop=1;jettySize=auto;html=1;entryX=0;entryY=0.5;entryDx=0;entryDy=0;entryPerimeter=0;startArrow=none;startFill=0;exitX=1;exitY=0.5;exitDx=0;exitDy=0;exitPerimeter=0;" parent="L3uOfCzPtdk7CH7yRiEO-10" source="L3uOfCzPtdk7CH7yRiEO-41" target="L3uOfCzPtdk7CH7yRiEO-23" edge="1">
          <mxGeometry relative="1" as="geometry" />
        </mxCell>
        <mxCell id="L3uOfCzPtdk7CH7yRiEO-30" value="2" style="rounded=1;whiteSpace=wrap;html=1;fillColor=#007CBD;strokeColor=none;fontColor=#FFFFFF;fontStyle=1;fontSize=22;" parent="L3uOfCzPtdk7CH7yRiEO-10" vertex="1">
          <mxGeometry x="70" y="242" width="40" height="38" as="geometry" />
        </mxCell>
        <mxCell id="L3uOfCzPtdk7CH7yRiEO-41" value="API Gateway&lt;div&gt;&lt;br&gt;&lt;/div&gt;" style="sketch=0;points=[[0,0,0],[0.25,0,0],[0.5,0,0],[0.75,0,0],[1,0,0],[0,1,0],[0.25,1,0],[0.5,1,0],[0.75,1,0],[1,1,0],[0,0.25,0],[0,0.5,0],[0,0.75,0],[1,0.25,0],[1,0.5,0],[1,0.75,0]];outlineConnect=0;fontColor=#232F3E;fillColor=#E7157B;strokeColor=#ffffff;dashed=0;verticalLabelPosition=bottom;verticalAlign=top;align=center;html=1;fontSize=12;fontStyle=0;aspect=fixed;shape=mxgraph.aws4.resourceIcon;resIcon=mxgraph.aws4.api_gateway;" parent="L3uOfCzPtdk7CH7yRiEO-10" vertex="1">
          <mxGeometry x="70" y="15.75" width="60" height="60" as="geometry" />
        </mxCell>
        <mxCell id="L3uOfCzPtdk7CH7yRiEO-19" style="edgeStyle=orthogonalEdgeStyle;rounded=0;orthogonalLoop=1;jettySize=auto;html=1;entryX=1;entryY=0.5;entryDx=0;entryDy=0;entryPerimeter=0;dashed=1;dashPattern=8 8;" parent="UEzPUAAOIrF-is8g5C7q-2" source="L3uOfCzPtdk7CH7yRiEO-16" target="L3uOfCzPtdk7CH7yRiEO-7" edge="1">
          <mxGeometry relative="1" as="geometry">
            <Array as="points">
              <mxPoint x="434" y="114" />
              <mxPoint x="244" y="114" />
            </Array>
          </mxGeometry>
        </mxCell>
        <mxCell id="L3uOfCzPtdk7CH7yRiEO-31" value="3" style="rounded=1;whiteSpace=wrap;html=1;fillColor=#007CBD;strokeColor=none;fontColor=#FFFFFF;fontStyle=1;fontSize=22;" parent="UEzPUAAOIrF-is8g5C7q-2" vertex="1">
          <mxGeometry x="194" y="45" width="40" height="38" as="geometry" />
        </mxCell>
        <mxCell id="L3uOfCzPtdk7CH7yRiEO-33" value="4" style="rounded=1;whiteSpace=wrap;html=1;fillColor=#007CBD;strokeColor=none;fontColor=#FFFFFF;fontStyle=1;fontSize=22;" parent="UEzPUAAOIrF-is8g5C7q-2" vertex="1">
          <mxGeometry x="34" y="465" width="40" height="38" as="geometry" />
        </mxCell>
        <mxCell id="UEzPUAAOIrF-is8g5C7q-1" value="Corporate data center" style="points=[[0,0],[0.25,0],[0.5,0],[0.75,0],[1,0],[1,0.25],[1,0.5],[1,0.75],[1,1],[0.75,1],[0.5,1],[0.25,1],[0,1],[0,0.75],[0,0.5],[0,0.25]];outlineConnect=0;gradientColor=none;html=1;whiteSpace=wrap;fontSize=12;fontStyle=0;shape=mxgraph.aws4.group;grIcon=mxgraph.aws4.group_corporate_data_center;strokeColor=#5A6C86;fillColor=none;verticalAlign=top;align=left;spacingLeft=30;fontColor=#5A6C86;dashed=0;container=1;pointerEvents=0;collapsible=0;recursiveResize=0;" parent="1" vertex="1">
          <mxGeometry x="12" y="175" width="408" height="625" as="geometry" />
        </mxCell>
        <mxCell id="L3uOfCzPtdk7CH7yRiEO-1" value="" style="sketch=0;outlineConnect=0;fontColor=#232F3E;gradientColor=none;fillColor=#232F3D;strokeColor=none;dashed=0;verticalLabelPosition=bottom;verticalAlign=top;align=center;html=1;fontSize=12;fontStyle=0;aspect=fixed;pointerEvents=1;shape=mxgraph.aws4.authenticated_user;" parent="UEzPUAAOIrF-is8g5C7q-1" vertex="1">
          <mxGeometry x="28" y="372" width="78" height="78" as="geometry" />
        </mxCell>
        <mxCell id="L3uOfCzPtdk7CH7yRiEO-12" style="edgeStyle=orthogonalEdgeStyle;rounded=0;orthogonalLoop=1;jettySize=auto;html=1;" parent="UEzPUAAOIrF-is8g5C7q-1" source="L3uOfCzPtdk7CH7yRiEO-1" target="L3uOfCzPtdk7CH7yRiEO-9" edge="1">
          <mxGeometry relative="1" as="geometry">
            <mxPoint x="288" y="381" as="sourcePoint" />
            <Array as="points">
              <mxPoint x="67" y="215" />
            </Array>
          </mxGeometry>
        </mxCell>
        <mxCell id="L3uOfCzPtdk7CH7yRiEO-4" style="edgeStyle=orthogonalEdgeStyle;rounded=0;orthogonalLoop=1;jettySize=auto;html=1;" parent="UEzPUAAOIrF-is8g5C7q-1" source="L3uOfCzPtdk7CH7yRiEO-1" target="nR_JS_Owz8EhOtPVmN-y-1" edge="1">
          <mxGeometry relative="1" as="geometry">
            <mxPoint x="258" y="411" as="targetPoint" />
          </mxGeometry>
        </mxCell>
        <mxCell id="-QjtrjUzRDEMRZ5MF8oH-9" value="1" style="rounded=1;whiteSpace=wrap;html=1;fillColor=#007CBD;strokeColor=none;fontColor=#FFFFFF;fontStyle=1;fontSize=22;" parent="UEzPUAAOIrF-is8g5C7q-1" vertex="1">
          <mxGeometry x="158" y="365" width="40" height="38" as="geometry" />
        </mxCell>
        <mxCell id="L3uOfCzPtdk7CH7yRiEO-9" value="On-Prem Database" style="sketch=0;outlineConnect=0;fontColor=#232F3E;gradientColor=none;fillColor=#232F3D;strokeColor=none;dashed=0;verticalLabelPosition=bottom;verticalAlign=top;align=center;html=1;fontSize=12;fontStyle=0;aspect=fixed;pointerEvents=1;shape=mxgraph.aws4.generic_database;" parent="UEzPUAAOIrF-is8g5C7q-1" vertex="1">
          <mxGeometry x="259" y="175" width="59" height="78" as="geometry" />
        </mxCell>
        <mxCell id="L3uOfCzPtdk7CH7yRiEO-32" value="3" style="rounded=1;whiteSpace=wrap;html=1;fillColor=#007CBD;strokeColor=none;fontColor=#FFFFFF;fontStyle=1;fontSize=22;" parent="UEzPUAAOIrF-is8g5C7q-1" vertex="1">
          <mxGeometry x="268" y="137" width="40" height="38" as="geometry" />
        </mxCell>
        <mxCell id="nR_JS_Owz8EhOtPVmN-y-1" value="Customer&lt;div&gt;Gateway&lt;/div&gt;" style="sketch=0;outlineConnect=0;fontColor=#232F3E;gradientColor=none;fillColor=#8C4FFF;strokeColor=none;dashed=0;verticalLabelPosition=bottom;verticalAlign=top;align=center;html=1;fontSize=12;fontStyle=0;aspect=fixed;pointerEvents=1;shape=mxgraph.aws4.customer_gateway;" vertex="1" parent="UEzPUAAOIrF-is8g5C7q-1">
          <mxGeometry x="318" y="380" width="62" height="62" as="geometry" />
        </mxCell>
        <mxCell id="-QjtrjUzRDEMRZ5MF8oH-47" value="Database Update Tool" style="text;html=1;resizable=0;points=[];autosize=1;align=left;verticalAlign=top;spacingTop=-4;fontSize=30;fontStyle=1" parent="1" vertex="1">
          <mxGeometry x="12" y="65.5" width="320" height="40" as="geometry" />
        </mxCell>
        <mxCell id="-QjtrjUzRDEMRZ5MF8oH-48" value="Application Overview" style="text;html=1;resizable=0;points=[];autosize=1;align=left;verticalAlign=top;spacingTop=-4;fontSize=16" parent="1" vertex="1">
          <mxGeometry x="12" y="115.5" width="170" height="30" as="geometry" />
        </mxCell>
        <mxCell id="SCVMTBWpLvtzJIhz15lM-1" value="" style="line;strokeWidth=2;html=1;fontSize=14;" parent="1" vertex="1">
          <mxGeometry x="8" y="140.5" width="1060" height="10" as="geometry" />
        </mxCell>
        <mxCell id="7OVz4w7n9kzEPWy-4BBC-3" value="" style="rounded=0;whiteSpace=wrap;html=1;fillColor=#EAEDED;fontSize=22;fontColor=#FFFFFF;strokeColor=none;labelBackgroundColor=none;" parent="1" vertex="1">
          <mxGeometry x="1107" y="52" width="539" height="1098" as="geometry" />
        </mxCell>
        <mxCell id="7OVz4w7n9kzEPWy-4BBC-4" value="1" style="rounded=1;whiteSpace=wrap;html=1;fillColor=#007CBD;strokeColor=none;fontColor=#FFFFFF;fontStyle=1;fontSize=22;labelBackgroundColor=none;" parent="1" vertex="1">
          <mxGeometry x="1124.5" y="64" width="40" height="38" as="geometry" />
        </mxCell>
        <mxCell id="7OVz4w7n9kzEPWy-4BBC-5" value="2" style="rounded=1;whiteSpace=wrap;html=1;fillColor=#007CBD;strokeColor=none;fontColor=#FFFFFF;fontStyle=1;fontSize=22;labelBackgroundColor=none;" parent="1" vertex="1">
          <mxGeometry x="1124.5" y="186" width="40" height="38" as="geometry" />
        </mxCell>
        <mxCell id="7OVz4w7n9kzEPWy-4BBC-6" value="3" style="rounded=1;whiteSpace=wrap;html=1;fillColor=#007CBD;strokeColor=none;fontColor=#FFFFFF;fontStyle=1;fontSize=22;labelBackgroundColor=none;" parent="1" vertex="1">
          <mxGeometry x="1124.5" y="306" width="40" height="38" as="geometry" />
        </mxCell>
        <mxCell id="7OVz4w7n9kzEPWy-4BBC-7" value="4" style="rounded=1;whiteSpace=wrap;html=1;fillColor=#007CBD;strokeColor=none;fontColor=#FFFFFF;fontStyle=1;fontSize=22;labelBackgroundColor=none;" parent="1" vertex="1">
          <mxGeometry x="1124.5" y="420" width="40" height="38" as="geometry" />
        </mxCell>
        <mxCell id="7OVz4w7n9kzEPWy-4BBC-8" value="5" style="rounded=1;whiteSpace=wrap;html=1;fillColor=#007CBD;strokeColor=none;fontColor=#FFFFFF;fontStyle=1;fontSize=22;labelBackgroundColor=none;" parent="1" vertex="1">
          <mxGeometry x="1124.5" y="537" width="40" height="38" as="geometry" />
        </mxCell>
        <mxCell id="7OVz4w7n9kzEPWy-4BBC-9" value="6" style="rounded=1;whiteSpace=wrap;html=1;fillColor=#007CBD;strokeColor=none;fontColor=#FFFFFF;fontStyle=1;fontSize=22;labelBackgroundColor=none;" parent="1" vertex="1">
          <mxGeometry x="1124.5" y="652" width="40" height="38" as="geometry" />
        </mxCell>
        <mxCell id="7OVz4w7n9kzEPWy-4BBC-10" value="7" style="rounded=1;whiteSpace=wrap;html=1;fillColor=#007CBD;strokeColor=none;fontColor=#FFFFFF;fontStyle=1;fontSize=22;labelBackgroundColor=none;" parent="1" vertex="1">
          <mxGeometry x="1124.5" y="768" width="40" height="38" as="geometry" />
        </mxCell>
        <mxCell id="7OVz4w7n9kzEPWy-4BBC-11" value="8" style="rounded=1;whiteSpace=wrap;html=1;fillColor=#007CBD;strokeColor=none;fontColor=#FFFFFF;fontStyle=1;fontSize=22;labelBackgroundColor=none;" parent="1" vertex="1">
          <mxGeometry x="1124.5" y="886" width="40" height="38" as="geometry" />
        </mxCell>
        <mxCell id="7OVz4w7n9kzEPWy-4BBC-13" value="Authenticated corporate users connect to the tool front end via Site-to-Site VPN. Database Update Tool is only available within the corporate network, not to the public Internet. (If required or desired, customer could use Direct Connect in place of Site-to-Site VPN.)" style="text;html=1;align=left;verticalAlign=top;spacingTop=-4;fontSize=14;labelBackgroundColor=none;whiteSpace=wrap;" parent="1" vertex="1">
          <mxGeometry x="1176" y="63.5" width="449" height="118" as="geometry" />
        </mxCell>
        <mxCell id="7OVz4w7n9kzEPWy-4BBC-14" value="&lt;span&gt;Tool UI is a React.js web application which calls microservice APIs in response to user input. Client VPN requests can only be routed to the UI Subnet, not to the Microservice Subnet. API Gateway is used to engage the Microservice Lambda functions.&lt;/span&gt;" style="text;html=1;align=left;verticalAlign=top;spacingTop=-4;fontSize=14;labelBackgroundColor=none;whiteSpace=wrap;" parent="1" vertex="1">
          <mxGeometry x="1175.5" y="186.5" width="450" height="115" as="geometry" />
        </mxCell>
        <mxCell id="7OVz4w7n9kzEPWy-4BBC-15" value="&lt;span&gt;Database Update Tool can be used to maintain data in on-prem databases and/or cloud-hosted databases.&amp;nbsp;&lt;/span&gt;" style="text;html=1;align=left;verticalAlign=top;spacingTop=-4;fontSize=14;labelBackgroundColor=none;whiteSpace=wrap;" parent="1" vertex="1">
          <mxGeometry x="1175.5" y="304.5" width="450" height="117" as="geometry" />
        </mxCell>
        <mxCell id="7OVz4w7n9kzEPWy-4BBC-16" value="&lt;span&gt;AWS Transit Gateway is used to connect the application VPC, the corporate Site-to-Site VPN, and any other VPCs required to access cloud-hosted target database systems.&lt;/span&gt;" style="text;html=1;align=left;verticalAlign=top;spacingTop=-4;fontSize=14;labelBackgroundColor=none;whiteSpace=wrap;" parent="1" vertex="1">
          <mxGeometry x="1175.5" y="420.5" width="450" height="121" as="geometry" />
        </mxCell>
        <mxCell id="7OVz4w7n9kzEPWy-4BBC-17" value="&lt;span&gt;DB Connector Service maintains connections to the remote client databases, including managing client credentials. It also builds appropriate SQL commands at runtime to perform data queries and updates.&lt;/span&gt;" style="text;html=1;align=left;verticalAlign=top;spacingTop=-4;fontSize=14;labelBackgroundColor=none;whiteSpace=wrap;" parent="1" vertex="1">
          <mxGeometry x="1176" y="537.5" width="449" height="114" as="geometry" />
        </mxCell>
        <mxCell id="7OVz4w7n9kzEPWy-4BBC-18" value="&lt;span&gt;Data Validator Service processes client input, either row-by-row or in batches, against predefined validation rules stored in the Config DB. It either returns a list of validation errors, or passes validated data forward to DB Connector Service for action.&lt;/span&gt;" style="text;html=1;align=left;verticalAlign=top;spacingTop=-4;fontSize=14;labelBackgroundColor=none;whiteSpace=wrap;" parent="1" vertex="1">
          <mxGeometry x="1175.5" y="653.5" width="450" height="118" as="geometry" />
        </mxCell>
        <mxCell id="7OVz4w7n9kzEPWy-4BBC-19" value="App Manager Service coordinates user authentication, configuration updates, workflows, and housekeeping, including logging of all user activity." style="text;html=1;align=left;verticalAlign=top;spacingTop=-4;fontSize=14;labelBackgroundColor=none;whiteSpace=wrap;" parent="1" vertex="1">
          <mxGeometry x="1176" y="768.5" width="449" height="113" as="geometry" />
        </mxCell>
        <mxCell id="7OVz4w7n9kzEPWy-4BBC-20" value="Client database credentials are stored securely in AWS Secrets Manager. DB Connector Service and Tool UI provide a friendly self-service interface to allow clients to rotate credentials." style="text;html=1;align=left;verticalAlign=top;spacingTop=-4;fontSize=14;labelBackgroundColor=none;whiteSpace=wrap;" parent="1" vertex="1">
          <mxGeometry x="1176" y="887.5" width="449" height="124" as="geometry" />
        </mxCell>
        <mxCell id="UEzPUAAOIrF-is8g5C7q-37" value="9" style="rounded=1;whiteSpace=wrap;html=1;fillColor=#007CBD;strokeColor=none;fontColor=#FFFFFF;fontStyle=1;fontSize=22;labelBackgroundColor=none;" parent="1" vertex="1">
          <mxGeometry x="1124.5" y="1021" width="40" height="38" as="geometry" />
        </mxCell>
        <mxCell id="UEzPUAAOIrF-is8g5C7q-38" value="Config DB is a document database that holds client configuration, including user registration and provisioned access, database connection information, client database table definitions, and data validation rules." style="text;html=1;align=left;verticalAlign=top;spacingTop=-4;fontSize=14;labelBackgroundColor=none;whiteSpace=wrap;" parent="1" vertex="1">
          <mxGeometry x="1176" y="1022.5" width="449" height="124" as="geometry" />
        </mxCell>
        <mxCell id="L3uOfCzPtdk7CH7yRiEO-5" style="edgeStyle=orthogonalEdgeStyle;rounded=0;orthogonalLoop=1;jettySize=auto;html=1;startArrow=classic;startFill=1;" parent="1" source="nR_JS_Owz8EhOtPVmN-y-1" target="L3uOfCzPtdk7CH7yRiEO-6" edge="1">
          <mxGeometry relative="1" as="geometry">
            <mxPoint x="460" y="595" as="targetPoint" />
          </mxGeometry>
        </mxCell>
        <mxCell id="L3uOfCzPtdk7CH7yRiEO-20" style="edgeStyle=orthogonalEdgeStyle;rounded=0;orthogonalLoop=1;jettySize=auto;html=1;dashed=1;dashPattern=8 8;" parent="1" source="L3uOfCzPtdk7CH7yRiEO-16" target="L3uOfCzPtdk7CH7yRiEO-9" edge="1">
          <mxGeometry relative="1" as="geometry">
            <Array as="points">
              <mxPoint x="870" y="390" />
            </Array>
          </mxGeometry>
        </mxCell>
        <mxCell id="L3uOfCzPtdk7CH7yRiEO-21" value="Logical connection – actually routed&amp;nbsp;&lt;div&gt;through gateway and/or VPN&lt;/div&gt;" style="endArrow=classic;html=1;rounded=0;dashed=1;dashPattern=8 8;" parent="1" edge="1">
          <mxGeometry y="-20" width="50" height="50" relative="1" as="geometry">
            <mxPoint x="130" y="806" as="sourcePoint" />
            <mxPoint x="310" y="806" as="targetPoint" />
            <mxPoint x="-1" as="offset" />
          </mxGeometry>
        </mxCell>
        <mxCell id="nR_JS_Owz8EhOtPVmN-y-3" value="Site-&lt;div&gt;to-&lt;/div&gt;&lt;div&gt;site&lt;/div&gt;&lt;div&gt;VPN&lt;/div&gt;" style="sketch=0;points=[[0,0,0],[0.25,0,0],[0.5,0,0],[0.75,0,0],[1,0,0],[0,1,0],[0.25,1,0],[0.5,1,0],[0.75,1,0],[1,1,0],[0,0.25,0],[0,0.5,0],[0,0.75,0],[1,0.25,0],[1,0.5,0],[1,0.75,0]];outlineConnect=0;fontColor=#232F3E;fillColor=#8C4FFF;strokeColor=#ffffff;dashed=0;verticalLabelPosition=bottom;verticalAlign=top;align=center;html=1;fontSize=12;fontStyle=0;aspect=fixed;shape=mxgraph.aws4.resourceIcon;resIcon=mxgraph.aws4.site_to_site_vpn;" vertex="1" parent="1">
          <mxGeometry x="430" y="571.5" width="29" height="29" as="geometry" />
        </mxCell>
      </root>
    </mxGraphModel>
  </diagram>
</mxfile>
